<svg width="40" height="40" viewBox="0 0 40 40" fill="none" xmlns="http://www.w3.org/2000/svg">
<path d="M3.33325 20C3.33325 12.9289 3.33325 9.3934 5.28587 7.1967C7.2385 5 10.3812 5 16.6666 5H23.3333C29.6186 5 32.7614 5 34.7139 7.1967C36.6666 9.3934 36.6666 12.9289 36.6666 20C36.6666 27.071 36.6666 30.6067 34.7139 32.8033C32.7614 35 29.6186 35 23.3333 35H16.6666C10.3812 35 7.2385 35 5.28587 32.8033C3.33325 30.6067 3.33325 27.071 3.33325 20Z" stroke="#723AE4" stroke-width="2"/>
<path d="M3.33325 15H16.6666C21.3806 15 23.7376 15 25.2021 16.4645C26.6666 17.929 26.6666 20.286 26.6666 25V35" stroke="#723AE4" stroke-width="2"/>
<path d="M16.6667 35V15" stroke="#723AE4" stroke-width="2"/>
</svg>
